<?xml version="1.0" encoding="UTF-8"?>
<svg version="1.1" xmlns="http://www.w3.org/2000/svg" width="512" height="512">
<path d="M0 0 C1.15229095 -0.0065712 2.30458191 -0.0131424 3.49179077 -0.01991272 C7.29555334 -0.0395785 11.09927645 -0.05129644 14.90307617 -0.0612793 C16.20913 -0.06535482 17.51518383 -0.06943035 18.86081505 -0.07362938 C25.06836395 -0.0926603 31.27590119 -0.10689025 37.4834736 -0.11524135 C44.5989385 -0.12497681 51.71408927 -0.15120768 58.82944375 -0.19174224 C64.36018375 -0.22214421 69.89083501 -0.23673311 75.42165679 -0.24002236 C78.70981632 -0.24234748 81.9975679 -0.25302131 85.28565407 -0.27648354 C117.30345452 -0.49065907 144.69482005 6.23383396 168.38354492 29.17700195 C191.25719895 53.05502323 195.86596957 80.39064907 195.81713867 112.2590332 C195.82170934 114.88490431 195.82701752 117.51077423 195.83302307 120.13664246 C195.84299847 125.62092072 195.83980975 131.10508066 195.82958984 136.58935547 C195.81812563 142.87934775 195.83217543 149.16891275 195.85898632 155.45884877 C195.88403398 161.56976497 195.886284 167.68048783 195.87986946 173.79144859 C195.87971743 176.36391599 195.8856626 178.93639208 195.89816093 181.50882912 C196.02994163 213.07560976 189.72902017 237.85645142 167.38354492 261.17700195 C166.79831055 261.81379883 166.21307617 262.4505957 165.61010742 263.10668945 C151.90051823 277.58864986 131.54210186 286.07231986 112.12670898 289.23999023 C110.51170502 289.50478683 110.51170502 289.50478683 108.86407471 289.77493286 C108.04549988 289.90761566 107.22692505 290.04029846 106.38354492 290.17700195 C106.4776062 290.77198486 106.57166748 291.36696777 106.6685791 291.97998047 C110.09000445 314.87846371 112.03257067 339.25552789 97.94006348 358.85324097 C85.63257248 375.15005861 68.50497195 393.17236314 47.52031708 396.52375031 C31.85799375 398.55761157 15.86362231 396.8930211 0.38354492 394.17700195 C0.39165695 394.84970627 0.39976898 395.52241058 0.40812683 396.21549988 C0.41443619 397.10538101 0.42074554 397.99526215 0.42724609 398.91210938 C0.43535812 399.79106369 0.44347015 400.67001801 0.451828 401.5756073 C0.35268524 405.35266965 -0.37711121 408.83951083 -1.30395508 412.48950195 C-1.48474609 413.21878906 -1.66553711 413.94807617 -1.85180664 414.69946289 C-8.71039977 441.39773425 -25.45087772 462.21614271 -48.94116211 476.20776367 C-63.82005536 484.81592546 -80.22718899 488.31158552 -97.23291016 488.35400391 C-98.96134659 488.3638607 -98.96134659 488.3638607 -100.72470093 488.37391663 C-104.5284635 488.3935824 -108.33218661 488.40530035 -112.13598633 488.4152832 C-113.44204016 488.41935873 -114.74809399 488.42343426 -116.0937252 488.42763329 C-122.3012741 488.44666421 -128.50881134 488.46089415 -134.71638376 488.46924525 C-141.83184866 488.47898072 -148.94699943 488.50521159 -156.06235391 488.54574615 C-161.59309391 488.57614812 -167.12374517 488.59073702 -172.65456694 488.59402627 C-175.94272647 488.59635139 -179.23047805 488.60702521 -182.51856422 488.63048744 C-214.53636468 488.84466298 -241.92773021 482.12016994 -265.61645508 459.17700195 C-288.49010911 435.29898068 -293.09887972 407.96335484 -293.05004883 376.0949707 C-293.0546195 373.46909959 -293.05992768 370.84322967 -293.06593323 368.21736145 C-293.07590862 362.73308319 -293.07271991 357.24892325 -293.0625 351.76464844 C-293.05103578 345.47465616 -293.06508558 339.18509115 -293.09189647 332.89515513 C-293.11694413 326.78423893 -293.11919416 320.67351608 -293.11277962 314.56255531 C-293.11262759 311.99008792 -293.11857275 309.41761183 -293.13107109 306.84517479 C-293.26285179 275.27839414 -286.96193032 250.49755248 -264.61645508 227.17700195 C-264.0312207 226.54020508 -263.44598633 225.9034082 -262.84301758 225.24731445 C-246.28804459 207.75966694 -220.59616785 198.70879509 -196.95355225 197.91543579 C-190.59868361 197.79566135 -184.24532916 197.83846051 -177.88989258 197.8840332 C-175.56149573 197.88964303 -173.23309529 197.89390655 -170.9046936 197.89689636 C-164.8385199 197.90823607 -158.77256891 197.93760706 -152.70648193 197.9710083 C-146.49160777 198.00194636 -140.27669689 198.01545194 -134.06176758 198.03051758 C-121.91323335 198.06248928 -109.76486289 198.11355064 -97.61645508 198.17700195 C-97.62014225 197.60514695 -97.62382942 197.03329195 -97.62762833 196.44410801 C-97.71643249 182.45164744 -97.78238299 168.45922976 -97.82370377 154.46654606 C-97.84422353 147.69943608 -97.87213799 140.93251559 -97.91821289 134.16552734 C-97.96273611 127.62324694 -97.98565752 121.08108861 -97.99596405 114.53866386 C-98.00329992 112.05466063 -98.01762349 109.57066695 -98.03937531 107.08674812 C-98.29911288 76.16964565 -91.2746705 50.35253883 -69.09301758 27.5871582 C-50.08851044 9.50222399 -26.07804717 0.06504803 0 0 Z M0.38354492 290.17700195 C0.38354492 308.32700195 0.38354492 326.47700195 0.38354492 345.17700195 C18.53354492 345.17700195 36.68354492 345.17700195 55.38354492 345.17700195 C55.38354492 327.02700195 55.38354492 308.87700195 55.38354492 290.17700195 C37.23354492 290.17700195 19.08354492 290.17700195 0.38354492 290.17700195 Z " fill="#3CB371" transform="translate(304.616455078125,11.822998046875)"/>
<path d="M0 0 C2.29485957 0.0030676 4.58972102 0.00493609 6.88458252 0.00567627 C11.66157316 0.01024429 16.43839194 0.02453535 21.21533203 0.046875 C27.30274771 0.07521844 33.3900293 0.08609786 39.47750473 0.0905571 C45.33918661 0.09573817 51.20083586 0.11024358 57.0625 0.125 C58.16057732 0.12688072 59.25865463 0.12876144 60.39000702 0.13069916 C93.04749 0.20301194 119.90376846 3.85626428 145.765625 25.328125 C146.59964844 25.9675 147.43367188 26.606875 148.29296875 27.265625 C164.34105315 40.65170488 176.21865287 64.39466842 178.3125 84.9375 C178.47733082 87.06668574 178.62579231 89.19715153 178.765625 91.328125 C178.84182068 92.42627029 178.84182068 92.42627029 178.91955566 93.54660034 C181.60076001 133.49884785 181.60076001 133.49884785 174.25878906 142.18969727 C171.65053753 144.57201907 168.94537646 146.67001863 166.02978516 148.66308594 C161.74604696 151.813301 158.20572018 155.76891739 154.515625 159.578125 C152.49062733 161.5786385 150.46102109 163.57430224 148.42871094 165.56738281 C146.70812828 167.38899793 145.23007551 169.29707826 143.765625 171.328125 C145.2497623 174.81466976 147.22776552 176.97003572 149.953125 179.578125 C152.80583132 182.31592371 155.46948551 185.12107305 158.03515625 188.125 C160.55028564 191.0342128 163.16417705 193.71379733 165.984375 196.328125 C166.68820312 196.988125 167.39203125 197.648125 168.1171875 198.328125 C169.56630472 199.67712139 171.03034255 201.0102424 172.5078125 202.328125 C177.58108545 207.15622119 177.58108545 207.15622119 178.0847168 210.35449219 C177.86156466 212.46512884 177.40845302 214.30708585 176.765625 216.328125 C176.44207031 217.52953125 176.11851562 218.7309375 175.78515625 219.96875 C166.78313686 246.88740991 150.22048577 267.61030221 124.953125 280.640625 C110.94013429 287.56479189 96.69581321 290.46634803 81.14916992 290.50512695 C79.42073349 290.51498375 79.42073349 290.51498375 77.65737915 290.52503967 C73.85361658 290.54470545 70.04989347 290.5564234 66.24609375 290.56640625 C64.94003992 290.57048178 63.63398609 290.5745573 62.28835487 290.57875633 C56.08080598 290.59778725 49.87326874 290.6120172 43.66569632 290.6203683 C36.55023142 290.63010377 29.43508065 290.65633463 22.31972617 290.69686919 C16.78898617 290.72727116 11.25833491 290.74186007 5.72751313 290.74514931 C2.43935361 290.74747444 -0.84839798 290.75814826 -4.13648415 290.78161049 C-36.1542846 290.99578603 -63.54565013 284.27129299 -87.234375 261.328125 C-110.10802903 237.45010373 -114.71679965 210.11447789 -114.66796875 178.24609375 C-114.67253942 175.62022264 -114.6778476 172.99435272 -114.68385315 170.3684845 C-114.69382854 164.88420623 -114.69063983 159.40004629 -114.68041992 153.91577148 C-114.6689557 147.62577921 -114.68300551 141.3362142 -114.7098164 135.04627818 C-114.73486405 128.93536198 -114.73711408 122.82463913 -114.73069954 116.71367836 C-114.73054751 114.14121096 -114.73649268 111.56873487 -114.74899101 108.99629784 C-114.88077171 77.42951719 -108.57985024 52.64867553 -86.234375 29.328125 C-85.64914063 28.69132812 -85.06390625 28.05453125 -84.4609375 27.3984375 C-62.25281582 3.93915403 -30.5287946 -0.18086004 0 0 Z " fill="#E6F4EC" transform="translate(126.234375,209.671875)"/>
<path d="M0 0 C3.37828513 0.94236375 5.08166317 2.93996959 7.2265625 5.62109375 C7.7215625 6.11609375 7.7215625 6.11609375 8.2265625 6.62109375 C8.53589729 18.28743437 5.24193351 29.99201483 2.90283203 41.32666016 C-0.00872604 55.51025749 -2.51412055 69.73725666 -4.69140625 84.05078125 C-4.86207108 85.17177719 -5.0327359 86.29277313 -5.20857239 87.44773865 C-6.06549952 93.09406055 -6.91171792 98.74175232 -7.7434082 104.3918457 C-10.50519457 122.95228026 -13.73709822 141.49390627 -18.8984375 159.55859375 C-19.13691406 160.42419922 -19.37539062 161.28980469 -19.62109375 162.18164062 C-21.16601965 167.72249648 -22.90356829 173.18169848 -24.7734375 178.62109375 C-24.13631836 178.3905127 -23.49919922 178.15993164 -22.84277344 177.92236328 C-8.98490299 173.13483372 6.38890176 175.56750627 20.67388916 176.91052246 C33.58057779 178.12372236 46.38380594 178.94747226 59.3515625 178.99609375 C60.04220795 179.00358643 60.73285339 179.0110791 61.44442749 179.01879883 C70.13056926 179.09696199 77.4100913 178.52932935 85.2265625 174.62109375 C90.25070354 174.02500922 93.14083748 174.05481043 97.2265625 177.18359375 C99.81880473 179.69297892 100.19902529 180.46413163 100.8515625 184.18359375 C100.16653393 187.9512509 99.77786523 189.7605422 97.2265625 192.62109375 C75.53284482 205.89422365 38.95327344 203.80757746 14.6640625 200.62109375 C11.85298896 200.27447799 9.04079798 199.94103581 6.2265625 199.62109375 C5.0185498 199.47849121 5.0185498 199.47849121 3.78613281 199.33300781 C-10.5070972 197.85775194 -20.7693074 200.90056898 -33.58764648 207.35205078 C-44.02926163 212.59896045 -44.02926163 212.59896045 -50.7734375 211.62109375 C-53.5834721 209.82745464 -55.28284218 208.6022844 -56.7734375 205.62109375 C-57.65842795 197.79445949 -54.77386957 191.80827213 -51.7734375 184.68359375 C-50.74908633 182.17768787 -49.73964408 179.66595868 -48.734375 177.15234375 C-48.48102386 176.52006363 -48.22767273 175.88778351 -47.96664429 175.23634338 C-37.55488059 149.03350971 -32.27387808 122.0153068 -27.85134888 94.3120575 C-27.24189244 90.49804571 -26.61899949 86.68701488 -25.97070312 82.87939453 C-24.61046728 74.88773813 -23.39083355 66.93349777 -22.5234375 58.87109375 C-21.30669329 48.54492714 -19.62648801 38.31041861 -17.79626465 28.07800293 C-17.49127175 26.36734134 -17.19099812 24.65583111 -16.89562988 22.94348145 C-16.47502962 20.51801596 -16.03520583 18.09680742 -15.58984375 15.67578125 C-15.46688431 14.95170074 -15.34392487 14.22762024 -15.21723938 13.4815979 C-14.31136245 8.72666322 -12.77285772 5.4124739 -9.7734375 1.62109375 C-6.0262994 -0.87699832 -4.30893823 -0.56844299 0 0 Z " fill="#3EB372" transform="translate(129.7734375,240.37890625)"/>
<path d="M0 0 C36.3 0 72.6 0 110 0 C110 4.29 110 8.58 110 13 C91.52 13 73.04 13 54 13 C53.01 17.95 52.02 22.9 51 28 C50.34 30.31 49.68 32.62 49 35 C49.55710159 34.98525131 50.11420319 34.97050262 50.68818665 34.95530701 C56.47906723 34.80304842 62.2701001 34.65825451 68.0612793 34.51782227 C70.22343701 34.46440559 72.38554834 34.40907649 74.54760742 34.35180664 C77.6527303 34.26988667 80.75795422 34.19481337 83.86328125 34.12109375 C85.31653557 34.08054115 85.31653557 34.08054115 86.79914856 34.03916931 C87.6998558 34.01907303 88.60056305 33.99897675 89.52856445 33.97827148 C90.71770195 33.94829323 90.71770195 33.94829323 91.93086243 33.91770935 C94 34 94 34 97 35 C96.57582824 48.11828761 95.85685586 61.00200899 94 74 C101.26 74 108.52 74 116 74 C116 78.29 116 82.58 116 87 C75.41 87 34.82 87 -7 87 C-7 82.71 -7 78.42 -7 74 C3.89 74 14.78 74 26 74 C26.66 70.37 27.32 66.74 28 63 C28.97846618 57.99545966 29.99111786 52.99855243 31 48 C23.08 48 15.16 48 7 48 C7 43.71 7 39.42 7 35 C16.24 35 25.48 35 35 35 C35.66 30.71 36.32 26.42 37 22 C37.66 19.03 38.32 16.06 39 13 C26.13 13 13.26 13 0 13 C0 8.71 0 4.42 0 0 Z " fill="#E1F2E7" transform="translate(325,72)"/>
<path d="M0 0 C30.69 0 61.38 0 93 0 C93 22.11 93 44.22 93 67 C88.38 67 83.76 67 79 67 C79 64.69 79 62.38 79 60 C57.22 60 35.44 60 13 60 C13 62.31 13 64.62 13 67 C8.71 67 4.42 67 0 67 C0 44.89 0 22.78 0 0 Z " fill="#E2F3E9" transform="translate(335,176)"/>
<path d="M0 0 C0.33 0 0.66 0 1 0 C1 4.29 1 8.58 1 13 C35.32 13 69.64 13 105 13 C99.96716708 23.06566584 91.50681782 31.4830206 83.9375 39.75 C83.45459629 40.2789172 82.97169258 40.8078344 82.47415543 41.35277939 C69.36042201 55.56910987 58.185049 64.30447391 38.37892151 65.1390686 C25.85444629 65.19077013 13.35466073 64.01013554 1 62 C1.02320313 62.69867188 1.04640625 63.39734375 1.0703125 64.1171875 C1.08835937 65.02726562 1.10640625 65.93734375 1.125 66.875 C1.14820313 67.77992188 1.17140625 68.68484375 1.1953125 69.6171875 C1 72 1 72 -1 74 C-4.00831496 71.01669981 -7.01310394 68.02990259 -10.01489258 65.04003906 C-11.03317292 64.02673848 -12.05235474 63.01434288 -13.07250977 62.00292969 C-18.42112211 56.69895475 -23.70629453 51.38759689 -28.58398438 45.63867188 C-30.60624441 43.29842888 -32.78038193 41.15235692 -35 39 C-30.98697617 30.24222945 -22.68685444 23.58664131 -15.9375 16.9375 C-8.97033078 10.11425574 -8.97033078 10.11425574 -2.44140625 2.87890625 C-1.63574219 1.92886719 -0.83007812 0.97882813 0 0 Z " fill="#3DB372" transform="translate(304,344)"/>
<path d="M0 0 C1.65525439 1.41386313 3.30967439 2.828712 4.96044922 4.24780273 C6.23466476 5.34249329 7.51185299 6.4337442 8.79345703 7.51977539 C14.43925139 12.36298868 19.65812038 17.57711293 24.875 22.875 C26.5575885 24.58300524 28.24237133 26.28885251 29.9296875 27.9921875 C30.66429199 28.73839355 31.39889648 29.48459961 32.15576172 30.25341797 C33.89194424 32.06693877 33.89194424 32.06693877 36 33 C36 33.66 36 34.32 36 35 C33.03 35.66 30.06 36.32 27 37 C26.67 55.48 26.34 73.96 26 93 C1.25 92.505 1.25 92.505 -24 92 C-24 73.85 -24 55.7 -24 37 C-28.29 37 -32.58 37 -37 37 C-37 36.34 -37 35.68 -37 35 C-35.56640625 33.58984375 -35.56640625 33.58984375 -33.5625 31.9375 C-28.77948698 27.87025478 -24.39946343 23.4745396 -20 19 C-15.05891805 13.97459925 -10.09387082 9.07996403 -4.7265625 4.5078125 C-3.07703058 3.06727105 -1.52920426 1.56673075 0 0 Z " fill="#E3F3E9" transform="translate(384,265)"/>
<path d="M0 0 C2.13892637 3.20838956 2.59322669 5.22661765 3.2890625 8.98046875 C3.48709473 10.02871826 3.68512695 11.07696777 3.88916016 12.15698242 C4.25340088 14.15208862 4.25340088 14.15208862 4.625 16.1875 C5.40875 20.415625 6.1925 24.64375 7 29 C16.24 31.31 25.48 33.62 35 36 C32.44618183 38.55381817 30.44222108 40.08895925 27.40234375 41.91796875 C26.07686523 42.71557617 26.07686523 42.71557617 24.72460938 43.52929688 C23.80486328 44.07650391 22.88511719 44.62371094 21.9375 45.1875 C21.01388672 45.74630859 20.09027344 46.30511719 19.13867188 46.88085938 C18.25630859 47.40873047 17.37394531 47.93660156 16.46484375 48.48046875 C15.656521 48.96410889 14.84819824 49.44774902 14.01538086 49.94604492 C12 51 12 51 10 51 C10.33 61.23 10.66 71.46 11 82 C3.21599199 75.32799313 3.21599199 75.32799313 0.71875 72.75390625 C0.18636719 72.22732422 -0.34601563 71.70074219 -0.89453125 71.15820312 C-1.97860264 70.08072584 -3.04873405 68.98906624 -4.10546875 67.88476562 C-6.93532646 65.1337054 -8.21144962 64.03305301 -12.26171875 63.86328125 C-17.17464681 65.357181 -21.68927482 67.40585191 -26.3125 69.625 C-28.09688145 70.47845504 -29.8844974 71.32519132 -31.67578125 72.1640625 C-32.45864502 72.53998535 -33.24150879 72.9159082 -34.0480957 73.30322266 C-34.69222412 73.53315918 -35.33635254 73.7630957 -36 74 C-36.66 73.67 -37.32 73.34 -38 73 C-37.66154053 72.26362305 -37.32308105 71.52724609 -36.97436523 70.76855469 C-35.45002068 67.43439599 -33.94361219 64.09243168 -32.4375 60.75 C-31.90447266 59.59113281 -31.37144531 58.43226563 -30.82226562 57.23828125 C-30.32275391 56.12324219 -29.82324219 55.00820313 -29.30859375 53.859375 C-28.84251709 52.83295898 -28.37644043 51.80654297 -27.89624023 50.74902344 C-26.94747209 47.83888198 -26.8099984 46.76698362 -28 44 C-29.69813673 41.63514516 -31.41682332 39.37937655 -33.25 37.125 C-33.72824219 36.52558594 -34.20648438 35.92617188 -34.69921875 35.30859375 C-37.04617566 32.3764877 -39.43275428 29.48361183 -41.859375 26.6171875 C-44 24 -44 24 -44 23 C-34.43 23.33 -24.86 23.66 -15 24 C-10.43606063 16.47665445 -10.43606063 16.47665445 -5.87524414 8.95141602 C-5.02627563 7.55427368 -5.02627563 7.55427368 -4.16015625 6.12890625 C-3.57886963 5.17056885 -2.99758301 4.21223145 -2.39868164 3.22485352 C-1 1 -1 1 0 0 Z " fill="#3EB473" transform="translate(238,236)"/>
<path d="M0 0 C21.78 0 43.56 0 66 0 C66 11.55 66 23.1 66 35 C44.22 35 22.44 35 0 35 C0 23.45 0 11.9 0 0 Z " fill="#3EB372" transform="translate(348,188)"/>
<path d="M0 0 C13.53 0 27.06 0 41 0 C41 27.72 41 55.44 41 84 C47.93 79.38 54.86 74.76 62 70 C62.99 70.33 63.98 70.66 65 71 C65.94921875 73.50390625 65.94921875 73.50390625 66.6875 76.5625 C66.93886719 77.57441406 67.19023437 78.58632812 67.44921875 79.62890625 C67.63097656 80.41136719 67.81273437 81.19382812 68 82 C65.29215266 83.95900598 62.58362328 85.91706706 59.875 87.875 C59.0605542 88.46418213 58.2461084 89.05336426 57.40698242 89.66040039 C53.59382326 92.41615079 49.77713728 95.16564709 45.93359375 97.87890625 C38.64771963 102.99860243 38.64771963 102.99860243 31.75 108.625 C29 111 29 111 27 111 C25.93900672 109.26164943 24.90173517 107.50880196 23.875 105.75 C23.29492188 104.77546875 22.71484375 103.8009375 22.1171875 102.796875 C21 100 21 100 21.6328125 98.015625 C22.08398438 97.35046875 22.53515625 96.6853125 23 96 C25.71547774 91.38709372 26.44333362 87.60520577 26.43237305 82.34228516 C26.4425647 81.60013763 26.45275635 80.85799011 26.46325684 80.09335327 C26.49327133 77.65851174 26.50263479 75.22406436 26.51171875 72.7890625 C26.52857405 71.09368596 26.54672544 69.39832185 26.56611633 67.70297241 C26.6135302 63.2544544 26.64339514 58.8059868 26.66955566 54.3572998 C26.69940476 49.81231736 26.74592012 45.26750847 26.79101562 40.72265625 C26.87695085 31.8151752 26.94279799 22.90771196 27 14 C18.09 14 9.18 14 0 14 C0 9.38 0 4.76 0 0 Z " fill="#DFF2E6" transform="translate(265,126)"/>
<path d="M0 0 C11.88 0 23.76 0 36 0 C36 12 36 12 34 26 C21.13 26 8.26 26 -5 26 C-4 16 -4 16 0 0 Z " fill="#3CB371" transform="translate(371,120)"/>
<path d="M0 0 C6.44971849 4.45985018 12.06919331 9.63482165 17.63061523 15.15014648 C19.07797087 16.57775984 20.54531621 17.98270609 22.01367188 19.38867188 C22.92826172 20.29294922 23.84285156 21.19722656 24.78515625 22.12890625 C25.61926025 22.94431885 26.45336426 23.75973145 27.31274414 24.59985352 C29 27 29 27 28.86523438 29.67822266 C27.83761239 32.4357523 26.58691619 33.81940499 24.4375 35.8125 C23.79683594 36.41707031 23.15617187 37.02164063 22.49609375 37.64453125 C22.00238281 38.09183594 21.50867188 38.53914063 21 39 C17.35012955 37.78337652 16.72931688 36.60436604 14.4375 33.5625 C7.38596396 24.67756459 -0.9064882 16.92334254 -9 9 C-6 6 -3 3 0 0 Z " fill="#E0F2E7" transform="translate(285,70)"/>
</svg>
